<svg width="141" height="58" viewBox="0 0 141 58" fill="none" xmlns="http://www.w3.org/2000/svg">
<path d="M84.3202 57.37L71.0302 57.42L64.6102 49.47L45.6602 26.51C47.3602 25.09 48.5402 23.3 50.2902 22.31L59.3402 17.22L63.9902 6.76L78.4002 0L78.4302 17.9L83.9802 28.38L78.4602 25.57L84.1302 45.01L73.4302 42.16L84.3302 57.39L84.3202 57.37Z" fill="#CB5701"/>
<path d="M26.24 57.4201L22.42 52.3601L22.27 57.3701L17.42 53.7601L12.59 57.4001L0 57.3301L25.01 44.1901L41.4 29.1201L51.6 42.1201L43.1 39.1701L46.86 46.8001L37.61 43.4901L37.3 57.3801L26.24 57.4201Z" fill="#CC5903"/>
<path d="M106.49 43.7602L110.74 44.0602L122.12 57.3802L113.1 57.4102L98.6699 43.2002L81.6699 12.1802L101.73 32.7702L109.79 31.5802L109.81 39.0902L106.49 43.7602Z" fill="#CC5803"/>
<path d="M132.39 47.5699L140.19 57.3699L129.12 57.4099L116.24 41.6499L129.15 50.7699L132.39 47.5699Z" fill="#CC5B06"/>
</svg>
