<svg width="540" height="395" viewBox="0 0 540 395" fill="none" xmlns="http://www.w3.org/2000/svg">
  <!-- Simplified World Map with Gray Continents -->

  <!-- North America -->
  <path d="M80 50 L90 45 L100 40 L115 35 L130 30 L145 28 L160 30 L170 35 L175 45 L180 60 L185 80 L188 100 L190 120 L188 140 L185 155 L180 165 L175 170 L165 175 L150 180 L135 182 L120 180 L105 175 L95 170 L85 160 L80 145 L75 125 L73 105 L75 85 L78 70 Z M130 180 L140 185 L145 195 L148 210 L145 225 L140 235 L130 240 L115 238 L105 230 L100 215 L105 200 L115 190 L125 185 Z" fill="#E0E0E0"/>

  <!-- South America -->
  <path d="M170 200 L180 195 L190 198 L195 205 L198 220 L200 240 L198 260 L195 280 L190 300 L185 315 L180 325 L175 330 L165 332 L155 330 L150 320 L148 305 L145 285 L145 265 L148 245 L152 225 L158 210 Z" fill="#E0E0E0"/>

  <!-- Europe -->
  <path d="M270 55 L285 50 L295 52 L305 58 L310 68 L312 80 L310 92 L305 100 L295 105 L280 107 L270 105 L260 98 L255 88 L253 75 L255 65 Z" fill="#E0E0E0"/>

  <!-- Africa -->
  <path d="M260 110 L275 108 L290 110 L300 115 L308 125 L312 140 L315 160 L315 180 L312 200 L305 220 L295 235 L280 245 L265 248 L250 245 L240 235 L235 220 L233 200 L235 180 L240 160 L248 140 L255 125 Z" fill="#E0E0E0"/>

  <!-- Asia -->
  <path d="M315 40 L340 35 L365 32 L390 35 L410 42 L425 52 L435 65 L440 80 L442 100 L440 120 L435 135 L425 145 L410 150 L390 152 L370 150 L350 145 L335 138 L325 128 L318 115 L315 100 L313 85 L315 70 L318 55 Z M440 85 L455 80 L465 82 L470 90 L468 100 L460 105 L445 103 L438 95 Z" fill="#E0E0E0"/>

  <!-- Australia -->
  <path d="M420 230 L440 228 L455 232 L465 242 L468 255 L465 268 L455 278 L440 282 L425 280 L415 272 L410 258 L413 245 Z" fill="#E0E0E0"/>

  <!-- Antarctica (bottom strip) -->
  <path d="M50 360 L490 360 L490 375 L50 375 Z" fill="#E0E0E0"/>
</svg>
